<svg id="f8333c21-e5f2-484f-9e48-90f2e89c5a19" data-name="Layer 1" xmlns="http://www.w3.org/2000/svg" viewBox="0 0 617.23819 617.08008"><defs><style>.be55bc6f-cd35-4e30-9fb7-d3d6a39eb2ad{fill:none;stroke:#000;stroke-miterlimit:10;stroke-width:2px;}</style></defs><circle class="be55bc6f-cd35-4e30-9fb7-d3d6a39eb2ad" cx="240.45569" cy="231.36817" r="204.85546"/><circle class="be55bc6f-cd35-4e30-9fb7-d3d6a39eb2ad" cx="253.69219" cy="221.43193" r="204.85546"/><circle class="be55bc6f-cd35-4e30-9fb7-d3d6a39eb2ad" cx="268.35097" cy="213.74713" r="204.85546"/><circle class="be55bc6f-cd35-4e30-9fb7-d3d6a39eb2ad" cx="284.05305" cy="208.51343" r="204.85546"/><circle class="be55bc6f-cd35-4e30-9fb7-d3d6a39eb2ad" cx="300.39073" cy="205.86615" r="204.85546"/><circle class="be55bc6f-cd35-4e30-9fb7-d3d6a39eb2ad" cx="316.94198" cy="205.87419" r="204.85546"/><circle class="be55bc6f-cd35-4e30-9fb7-d3d6a39eb2ad" cx="333.27728" cy="208.53674" r="204.85546"/><circle class="be55bc6f-cd35-4e30-9fb7-d3d6a39eb2ad" cx="348.97366" cy="213.78546" r="204.85546"/><circle class="be55bc6f-cd35-4e30-9fb7-d3d6a39eb2ad" cx="363.62518" cy="221.48405" r="204.85546"/><circle class="be55bc6f-cd35-4e30-9fb7-d3d6a39eb2ad" cx="376.85191" cy="231.43306" r="204.85545"/><circle class="be55bc6f-cd35-4e30-9fb7-d3d6a39eb2ad" cx="388.31206" cy="243.3752" r="204.85545"/><circle class="be55bc6f-cd35-4e30-9fb7-d3d6a39eb2ad" cx="397.70744" cy="257.00072" r="204.85545"/><circle class="be55bc6f-cd35-4e30-9fb7-d3d6a39eb2ad" cx="404.79552" cy="271.95767" r="204.85546"/><circle class="be55bc6f-cd35-4e30-9fb7-d3d6a39eb2ad" cx="409.39283" cy="287.8571" r="204.85546"/><circle class="be55bc6f-cd35-4e30-9fb7-d3d6a39eb2ad" cx="411.37965" cy="304.28833" r="204.85546"/><circle class="be55bc6f-cd35-4e30-9fb7-d3d6a39eb2ad" cx="410.70608" cy="320.82541" r="204.85545"/><circle class="be55bc6f-cd35-4e30-9fb7-d3d6a39eb2ad" cx="407.38633" cy="337.04083" r="204.85546"/><circle class="be55bc6f-cd35-4e30-9fb7-d3d6a39eb2ad" cx="401.51056" cy="352.51316" r="204.85545"/><circle class="be55bc6f-cd35-4e30-9fb7-d3d6a39eb2ad" cx="393.22821" cy="366.84301" r="204.85546"/><circle class="be55bc6f-cd35-4e30-9fb7-d3d6a39eb2ad" cx="382.75356" cy="379.65825" r="204.85546"/><circle class="be55bc6f-cd35-4e30-9fb7-d3d6a39eb2ad" cx="370.36174" cy="390.62732" r="204.85546"/><circle class="be55bc6f-cd35-4e30-9fb7-d3d6a39eb2ad" cx="356.36807" cy="399.46698" r="204.85546"/><circle class="be55bc6f-cd35-4e30-9fb7-d3d6a39eb2ad" cx="341.13858" cy="405.94738" r="204.85546"/><circle class="be55bc6f-cd35-4e30-9fb7-d3d6a39eb2ad" cx="325.06616" cy="409.9005" r="204.85546"/><circle class="be55bc6f-cd35-4e30-9fb7-d3d6a39eb2ad" cx="308.56781" cy="411.22462" r="204.85546"/><circle class="be55bc6f-cd35-4e30-9fb7-d3d6a39eb2ad" cx="292.07099" cy="409.88454" r="204.85545"/><circle class="be55bc6f-cd35-4e30-9fb7-d3d6a39eb2ad" cx="276.00328" cy="405.91518" r="204.85546"/><circle class="be55bc6f-cd35-4e30-9fb7-d3d6a39eb2ad" cx="260.7797" cy="399.42209" r="204.85546"/><circle class="be55bc6f-cd35-4e30-9fb7-d3d6a39eb2ad" cx="246.79564" cy="390.56953" r="204.85546"/><circle class="be55bc6f-cd35-4e30-9fb7-d3d6a39eb2ad" cx="234.41247" cy="379.58736" r="204.85546"/><circle class="be55bc6f-cd35-4e30-9fb7-d3d6a39eb2ad" cx="223.95031" cy="366.76152" r="204.85545"/><circle class="be55bc6f-cd35-4e30-9fb7-d3d6a39eb2ad" cx="215.68189" cy="352.42533" r="204.85545"/><circle class="be55bc6f-cd35-4e30-9fb7-d3d6a39eb2ad" cx="209.81981" cy="336.94582" r="204.85545"/><circle class="be55bc6f-cd35-4e30-9fb7-d3d6a39eb2ad" cx="206.51723" cy="320.72799" r="204.85545"/><circle class="be55bc6f-cd35-4e30-9fb7-d3d6a39eb2ad" cx="205.85867" cy="304.19019" r="204.85545"/><circle class="be55bc6f-cd35-4e30-9fb7-d3d6a39eb2ad" cx="207.86164" cy="287.7607" r="204.85546"/><circle class="be55bc6f-cd35-4e30-9fb7-d3d6a39eb2ad" cx="212.47401" cy="271.86574" r="204.85546"/><circle class="be55bc6f-cd35-4e30-9fb7-d3d6a39eb2ad" cx="219.57643" cy="256.91534" r="204.85546"/><circle class="be55bc6f-cd35-4e30-9fb7-d3d6a39eb2ad" cx="228.98509" cy="243.2997" r="204.85546"/></svg>