<?xml version="1.0" encoding="UTF-8"?><svg id="a" xmlns="http://www.w3.org/2000/svg" viewBox="0 0 642.49 414.82"><polygon points="642.49 336.17 0 414.82 0 78.65 642.49 0 642.49 336.17" style="fill:#101827;"/><path d="M40.32,221.57V115.4l28.82-3.53v82.95l42.92-5.25v23.23l-71.75,8.78Z" style="fill:#e1e6f4;"/><path d="M146.28,209.84c-4.5,.66-9.08,.37-13.45-.87-3.7-1.07-6.93-3.37-9.15-6.53-2.21-3.15-3.32-7.37-3.32-12.66-.08-3.93,.68-7.83,2.23-11.44,1.44-3.21,3.56-6.06,6.22-8.36,2.78-2.37,5.92-4.28,9.3-5.65,3.71-1.52,7.55-2.67,11.48-3.43,4.46-.89,8.04-1.75,10.76-2.59,2.13-.54,4.13-1.51,5.88-2.85,1.16-.95,1.82-2.38,1.81-3.88v-.21c.13-1.83-.79-3.57-2.38-4.48-1.89-.96-4.03-1.28-6.12-.91-2.42,.21-4.74,1.12-6.66,2.6-1.75,1.47-2.86,3.57-3.08,5.85l-26.34,3.22c.37-4.97,1.97-9.77,4.64-13.97,3.03-4.7,7.17-8.59,12.05-11.33,6.11-3.38,12.85-5.47,19.8-6.13,5.09-.7,10.26-.67,15.34,.12,4.08,.62,8.01,2.02,11.56,4.13,3.02,1.81,5.52,4.36,7.28,7.4,1.7,3.05,2.57,6.49,2.51,9.98v54.54l-26.75,3.27v-11.2l-.62,.08c-1.44,2.96-3.4,5.64-5.78,7.91-2.25,2.1-4.87,3.78-7.72,4.94-3.05,1.22-6.25,2.03-9.51,2.41Zm9.33-19.18c2.17-.26,4.26-.98,6.14-2.1,1.89-1.1,3.49-2.63,4.69-4.46,1.23-1.9,1.86-4.13,1.81-6.39v-6.64c-.76,.4-1.56,.8-2.41,1.18-.85,.38-1.75,.75-2.7,1.11-.95,.36-1.95,.71-3.01,1.04-1.05,.34-2.15,.66-3.29,.97-1.92,.49-3.75,1.28-5.42,2.35-1.28,.82-2.34,1.93-3.11,3.23-.67,1.18-1.02,2.52-1.01,3.88-.15,1.9,.74,3.74,2.33,4.79,1.8,1.03,3.91,1.4,5.96,1.03h0Z" style="fill:#e1e6f4;"/><path d="M248.72,197.51c-8.64,1.06-16.04,.24-22.19-2.44-5.99-2.54-10.97-7-14.15-12.68-3.28-5.77-4.93-12.73-4.93-20.89-.11-7.65,1.57-15.22,4.93-22.09,3.24-6.52,8.11-12.08,14.15-16.14,6.65-4.37,14.27-7.07,22.19-7.87,7.81-.96,14.58-.38,20.3,1.74,5.43,1.9,10.1,5.51,13.3,10.3,3.28,5.23,4.94,11.31,4.77,17.48l-26.54,3.25c-.38-4.13-1.58-7.18-3.6-9.12-2.09-1.97-4.98-2.83-7.8-2.34-2.43,.28-4.72,1.31-6.53,2.95-2.03,1.92-3.53,4.34-4.35,7.01-1.12,3.57-1.65,7.31-1.56,11.05-.11,3.62,.41,7.23,1.56,10.67,.77,2.4,2.3,4.49,4.35,5.95,1.94,1.22,4.26,1.7,6.53,1.35,2.02-.22,3.95-.97,5.6-2.16,1.69-1.27,3.05-2.93,3.97-4.84,1.08-2.27,1.7-4.74,1.84-7.25l26.54-3.25c0,6.61-1.65,13.11-4.82,18.92-3.14,5.62-7.69,10.33-13.19,13.67-6.21,3.71-13.15,6.01-20.35,6.74Z" style="fill:#e1e6f4;"/><path d="M327.51,141.62v44.79l-28.62,3.5V83.74l27.58-3.38v41.68l.83-.1c1.67-5.11,4.78-9.63,8.97-13,4.35-3.43,9.58-5.55,15.09-6.12,4.99-.78,10.11-.07,14.7,2.04,4.14,2.03,7.54,5.31,9.69,9.39,2.4,4.64,3.57,9.81,3.4,15.03v50.8l-28.62,3.5v-44.79c.03-3.94-.94-6.92-2.93-8.92-1.99-2-4.81-2.78-8.48-2.33-2.19,.24-4.28,1.02-6.09,2.27-1.75,1.24-3.14,2.91-4.04,4.85-.99,2.18-1.49,4.55-1.48,6.95Z" style="fill:#e1e6f4;"/><path d="M421.86,68.69v106.17l-28.62,3.5V72.19l28.62-3.5Z" style="fill:#e1e6f4;"/><path d="M458.57,171.61c-4.5,.66-9.08,.37-13.45-.87-3.7-1.07-6.93-3.37-9.15-6.53-2.21-3.15-3.32-7.37-3.32-12.66-.08-3.93,.68-7.83,2.23-11.44,1.44-3.21,3.56-6.06,6.22-8.36,2.78-2.37,5.92-4.28,9.3-5.65,3.71-1.52,7.55-2.67,11.48-3.43,4.46-.89,8.04-1.75,10.76-2.59,2.13-.54,4.13-1.51,5.88-2.85,1.16-.95,1.82-2.38,1.81-3.88v-.21c.13-1.83-.79-3.57-2.38-4.48-1.89-.96-4.03-1.28-6.12-.91-2.42,.21-4.74,1.12-6.66,2.6-1.75,1.47-2.86,3.57-3.08,5.85l-26.34,3.22c.37-4.97,1.97-9.77,4.64-13.97,3.03-4.7,7.17-8.59,12.05-11.33,6.11-3.38,12.85-5.47,19.8-6.13,5.09-.7,10.26-.67,15.34,.12,4.08,.62,8.01,2.02,11.56,4.13,3.02,1.81,5.52,4.36,7.28,7.4,1.7,3.05,2.57,6.49,2.51,9.98v54.54l-26.75,3.27v-11.2l-.62,.08c-1.44,2.96-3.4,5.64-5.78,7.91-2.25,2.1-4.87,3.78-7.72,4.94-3.05,1.22-6.25,2.03-9.51,2.41Zm9.33-19.18c2.17-.26,4.26-.98,6.14-2.1,1.89-1.1,3.49-2.63,4.69-4.46,1.23-1.9,1.86-4.13,1.81-6.39v-6.64c-.76,.4-1.56,.8-2.41,1.18-.85,.38-1.75,.75-2.7,1.11-.95,.36-1.95,.71-3.01,1.04-1.05,.34-2.15,.66-3.29,.97-1.92,.49-3.75,1.28-5.42,2.35-1.28,.82-2.34,1.93-3.11,3.23-.67,1.18-1.02,2.52-1.01,3.88-.15,1.9,.74,3.74,2.33,4.79,1.8,1.03,3.91,1.4,5.96,1.03Z" style="fill:#e1e6f4;"/><path d="M551.26,114.23v44.79l-28.62,3.5V82.9l27.17-3.33v15.14l.83-.1c1.66-5.16,4.85-9.69,9.15-12.99,4.44-3.43,9.74-5.57,15.32-6.18,5-.78,10.11-.07,14.7,2.06,4.14,2.04,7.53,5.34,9.69,9.41,2.39,4.62,3.56,9.78,3.4,14.98v50.8l-28.62,3.5v-44.79c.03-3.94-.96-6.92-2.98-8.91-2.02-2-4.83-2.78-8.42-2.34-2.21,.23-4.32,1.02-6.14,2.28-1.74,1.23-3.13,2.9-4.02,4.85-.97,2.18-1.47,4.55-1.45,6.94Z" style="fill:#e1e6f4;"/><path d="M40.32,352.66v-106.17l28.82-3.53v42.92l1.45-.18,31.93-46.83,33.59-4.11-35.87,51.67,36.7,54.4-34.42,4.21-23.85-36.9-9.54,13.61v27.37l-28.82,3.53Z" style="fill:#e1e6f4;"/><path d="M177.38,337.33c-8.5,1.04-15.82,.3-21.95-2.21-5.99-2.39-10.98-6.75-14.15-12.37-3.3-5.73-4.95-12.88-4.95-21.45-.12-7.68,1.58-15.28,4.98-22.18,3.24-6.47,8.07-12,14.05-16.08,6.4-4.29,13.75-6.95,21.41-7.75,5.45-.77,10.99-.49,16.33,.8,4.64,1.15,8.93,3.41,12.49,6.58,3.57,3.28,6.3,7.36,7.98,11.91,1.96,5.35,2.91,11.02,2.8,16.71v6.64l-71.13,8.71v-15.76l44.79-5.48c.03-2.07-.58-4.11-1.74-5.83-1.12-1.6-2.69-2.84-4.51-3.54-2.04-.77-4.24-1.01-6.4-.69-2.27,.27-4.45,1.04-6.38,2.26-1.88,1.17-3.47,2.76-4.64,4.64-1.17,1.89-1.8,4.07-1.84,6.29v17c-.06,2.32,.49,4.61,1.61,6.65,1.04,1.85,2.66,3.31,4.61,4.15,2.3,.93,4.81,1.22,7.26,.82,1.87-.21,3.7-.72,5.42-1.49,1.58-.71,3.01-1.7,4.23-2.93,1.16-1.17,2.04-2.58,2.59-4.13l26.13-3.2c-.84,5.5-3.03,10.71-6.38,15.17-3.55,4.64-8.09,8.42-13.3,11.06-6.04,3.06-12.58,5-19.31,5.71Z" style="fill:#e1e6f4;"/><path d="M227.98,329.69v-79.63l27.17-3.33v15.14l.83-.1c1.55-5.01,4.5-9.47,8.5-12.86,4.06-3.41,9.04-5.54,14.31-6.11,4.98-.8,10.09,.14,14.46,2.66,3.95,2.32,6.64,6.31,7.31,10.85l.83-.1c1.38-5.09,4.41-9.59,8.61-12.79,4.45-3.52,9.81-5.71,15.45-6.32,7.64-.93,13.83,.76,18.59,5.09,4.75,4.33,7.13,10.57,7.13,18.72v53.71l-28.62,3.5v-46.45c0-3.49-.88-6.12-2.64-7.89-1.89-1.81-4.53-2.6-7.1-2.11-2.75,.26-5.28,1.65-6.97,3.83-1.8,2.47-2.7,5.48-2.57,8.53v46.45l-27.37,3.35v-46.45c0-3.49-.88-6.12-2.64-7.89-1.89-1.81-4.53-2.6-7.1-2.11-1.84,.19-3.59,.87-5.08,1.97-1.45,1.11-2.58,2.58-3.29,4.27-.81,1.94-1.21,4.03-1.17,6.13v46.45l-28.62,3.5Z" style="fill:#e1e6f4;"/><path d="M365.26,342.75v-109.49l28.41-3.48v13.89l.62-.08c1.08-2.9,2.62-5.6,4.56-8,2.07-2.57,4.6-4.72,7.47-6.36,7.83-4.31,17.24-4.67,25.38-.95,4.75,2.22,8.62,6.15,11.61,11.8,2.99,5.65,4.48,13.28,4.48,22.88,0,9.19-1.43,16.99-4.28,23.39-2.45,5.88-6.38,11.02-11.4,14.93-4.55,3.47-9.95,5.67-15.63,6.37-3.33,.48-6.73,.27-9.98-.62-2.77-.79-5.32-2.19-7.47-4.11-2.04-1.85-3.66-4.12-4.74-6.65l-.41,.05v42.92l-28.62,3.5Zm27.99-73.1c-.09,3.35,.43,6.68,1.53,9.85,.8,2.4,2.32,4.49,4.35,6,1.99,1.33,4.4,1.86,6.77,1.48,2.51-.27,4.87-1.35,6.71-3.08,1.98-1.94,3.44-4.35,4.25-7,1.04-3.34,1.54-6.82,1.48-10.32,.09-3.38-.41-6.75-1.48-9.95-.76-2.38-2.24-4.47-4.25-5.96-1.98-1.31-4.38-1.82-6.71-1.43-2.53,.28-4.9,1.36-6.77,3.08-2.01,1.94-3.51,4.35-4.35,7.01-1.08,3.33-1.6,6.82-1.53,10.32h0Z" style="fill:#e1e6f4;"/><path d="M520.18,194.73l-31.27,120-22.17,2.71,31.27-120,22.17-2.71Z" style="fill:#e1e6f4;"/><path d="M602.43,258.2l-70.5,36.87v-23.88l44.91-21.04-.76,1.23v-2.65l.76,1.04-44.91-10.04v-23.88l70.5,19.61v22.74Z" style="fill:#e1e6f4;"/></svg>