<svg id="bd3692dc-d0c7-4680-901e-a56bfe97d9fe" data-name="Layer 1" xmlns="http://www.w3.org/2000/svg" viewBox="0 0 495 319.59267"><defs><style>.ad70f56d-6e6b-4609-9ed5-b5442faaa408,.b5ff5c73-a622-4b42-8491-b18022688b77{fill:#fff;}.ad70f56d-6e6b-4609-9ed5-b5442faaa408{stroke:#000;}.a75b1f07-e41b-4292-9c4b-0ef6489dc8b7,.ad70f56d-6e6b-4609-9ed5-b5442faaa408{stroke-miterlimit:10;}.a75b1f07-e41b-4292-9c4b-0ef6489dc8b7{stroke:#fff;}</style></defs><path class="ad70f56d-6e6b-4609-9ed5-b5442faaa408" d="M1054.77927,743.78835" transform="translate(-712.92424 -336.27226)"/><polygon points="495 259 0 319.593 0 60.593 495 0 495 259"/><path class="b5ff5c73-a622-4b42-8491-b18022688b77" d="M743.98528,506.97682V425.178l22.20752-2.71841v63.90527l33.0708-4.04818v17.89356Z" transform="translate(-712.92424 -336.27226)"/><path class="b5ff5c73-a622-4b42-8491-b18022688b77" d="M825.624,497.942a24.82329,24.82329,0,0,1-10.36475-.66827,13.0324,13.0324,0,0,1-7.0498-5.02815q-2.55615-3.64146-2.55615-9.75254a21.1486,21.1486,0,0,1,1.71777-8.8172,18.45967,18.45967,0,0,1,4.793-6.43827,26.30929,26.30929,0,0,1,7.16894-4.35215,46.68375,46.68375,0,0,1,8.84717-2.64109q5.15259-1.02916,8.2876-1.993a12.58584,12.58584,0,0,0,4.5332-2.19212,3.83441,3.83441,0,0,0,1.398-2.987v-.15966a3.66881,3.66881,0,0,0-1.83691-3.45,7.50056,7.50056,0,0,0-4.71338-.70136,9.78906,9.78906,0,0,0-5.13233,2.00617,6.77378,6.77378,0,0,0-2.37646,4.50477l-20.29,2.48369a23.32634,23.32634,0,0,1,3.57471-10.76228,26.39979,26.39979,0,0,1,9.28662-8.72564,39.236,39.236,0,0,1,15.25732-4.72311,40.86031,40.86031,0,0,1,11.82227.09044,24.58554,24.58554,0,0,1,8.90674,3.18366,16.00346,16.00346,0,0,1,5.61181,5.7032,15.32134,15.32134,0,0,1,1.937,7.6916v42.01758l-20.60938,2.52278v-8.62744l-.479.05863a21.25,21.25,0,0,1-4.45362,6.09693,19.50128,19.50128,0,0,1-5.95117,3.80416A28.32348,28.32348,0,0,1,825.624,497.942Zm7.18945-14.77948a12.09537,12.09537,0,0,0,4.73291-1.61792,10.89587,10.89587,0,0,0,3.61475-3.43809,8.76431,8.76431,0,0,0,1.39795-4.92405v-5.1123q-.87964.46729-1.85742.90656-.97926.43994-2.07715.85339-1.09863.41426-2.31641.80259-1.21875.38868-2.53613.7499a14.26075,14.26075,0,0,0-4.17383,1.80877,7.45508,7.45508,0,0,0-2.39648,2.49013,6.032,6.032,0,0,0-.77881,2.99132,4.04015,4.04015,0,0,0,1.79736,3.69405A6.83218,6.83218,0,0,0,832.8134,483.1625Z" transform="translate(-712.92424 -336.27226)"/><path class="b5ff5c73-a622-4b42-8491-b18022688b77" d="M904.54534,488.44092q-9.98585,1.22236-17.09473-1.88156a22.63316,22.63316,0,0,1-10.90381-9.76879q-3.79467-6.66489-3.79443-16.0907a37.54636,37.54636,0,0,1,3.79443-17.02014,32.31357,32.31357,0,0,1,10.90381-12.43824,38.08346,38.08346,0,0,1,17.09473-6.06668q9.02635-1.10492,15.63671,1.3408a20.3927,20.3927,0,0,1,10.24512,7.93242,24.08959,24.08959,0,0,1,3.67432,13.46967l-20.44971,2.50323q-.43946-4.778-2.77588-7.02934a6.99078,6.99078,0,0,0-6.01123-1.80031,9.04848,9.04848,0,0,0-5.03222,2.27371,12.508,12.508,0,0,0-3.355,5.40336,26.35994,26.35994,0,0,0-1.19825,8.51386,23.71787,23.71787,0,0,0,1.19825,8.221,8.96836,8.96836,0,0,0,3.355,4.582,7.3403,7.3403,0,0,0,5.03222,1.04172,9.06594,9.06594,0,0,0,4.314-1.66625,10.07631,10.07631,0,0,0,3.05517-3.72946,14.896,14.896,0,0,0,1.418-5.58519l20.44971-2.50324a30.3682,30.3682,0,0,1-3.71436,14.57382,28.74143,28.74143,0,0,1-10.165,10.53043A38.13778,38.13778,0,0,1,904.54534,488.44092Z" transform="translate(-712.92424 -336.27226)"/><path class="b5ff5c73-a622-4b42-8491-b18022688b77" d="M965.25432,445.38262v34.50879l-22.04736,2.6988V400.79138l21.24853-2.601v32.11231l.63916-.07824a21.34021,21.34021,0,0,1,6.90967-10.01232,22.48175,22.48175,0,0,1,11.62256-4.71763,19.77766,19.77766,0,0,1,11.32324,1.5695,16.8144,16.8144,0,0,1,7.46924,7.23364,23.54663,23.54663,0,0,1,2.61621,11.5821V475.0218l-22.04736,2.69881V443.21182q.03882-4.55822-2.25684-6.87316-2.29761-2.31444-6.53027-1.79682a10.12548,10.12548,0,0,0-4.69336,1.75273,9.45169,9.45169,0,0,0-3.11524,3.73632A12.72991,12.72991,0,0,0,965.25432,445.38262Z" transform="translate(-712.92424 -336.27226)"/><path class="b5ff5c73-a622-4b42-8491-b18022688b77" d="M1037.94622,389.1944v81.79883l-22.04737,2.69881V391.89321Z" transform="translate(-712.92424 -336.27226)"/><path class="b5ff5c73-a622-4b42-8491-b18022688b77" d="M1066.22258,468.49043a24.8229,24.8229,0,0,1-10.36474-.66827,13.03228,13.03228,0,0,1-7.04981-5.02815q-2.55615-3.64145-2.55615-9.75253a21.1486,21.1486,0,0,1,1.71777-8.8172,18.45967,18.45967,0,0,1,4.793-6.43827,26.30962,26.30962,0,0,1,7.16895-4.35216,46.68415,46.68415,0,0,1,8.84716-2.64108q5.15259-1.02917,8.2876-1.993a12.5859,12.5859,0,0,0,4.53321-2.19212,3.83445,3.83445,0,0,0,1.39794-2.987V423.461a3.66883,3.66883,0,0,0-1.83691-3.45,7.50063,7.50063,0,0,0-4.71338-.70135,9.789,9.789,0,0,0-5.13232,2.00617,6.77383,6.77383,0,0,0-2.37647,4.50477l-20.29,2.48369a23.32641,23.32641,0,0,1,3.57471-10.76228,26.39979,26.39979,0,0,1,9.28662-8.72564,39.236,39.236,0,0,1,15.25733-4.72311,40.86024,40.86024,0,0,1,11.82226.09044,24.58517,24.58517,0,0,1,8.90674,3.18366,16.00349,16.00349,0,0,1,5.61182,5.7032,15.32144,15.32144,0,0,1,1.937,7.6916v42.01758l-20.60938,2.52278v-8.62744l-.479.05863a21.24993,21.24993,0,0,1-4.45361,6.09692,19.50117,19.50117,0,0,1-5.95118,3.80417A28.32307,28.32307,0,0,1,1066.22258,468.49043ZM1073.412,453.711a12.09548,12.09548,0,0,0,4.73291-1.61792,10.89594,10.89594,0,0,0,3.61474-3.43809,8.76431,8.76431,0,0,0,1.39795-4.924v-5.11231q-.87963.46729-1.85742.90657-.97924.43993-2.07715.85338-1.09863.41427-2.31641.8026-1.21875.38868-2.53613.7499a14.261,14.261,0,0,0-4.17383,1.80876,7.45527,7.45527,0,0,0-2.39648,2.49013,6.03219,6.03219,0,0,0-.77881,2.99133,4.04016,4.04016,0,0,0,1.79736,3.69405A6.83222,6.83222,0,0,0,1073.412,453.711Z" transform="translate(-712.92424 -336.27226)"/><path class="b5ff5c73-a622-4b42-8491-b18022688b77" d="M1137.63567,424.28151V458.7903l-22.04737,2.69881V400.14l20.9292-2.56194v11.6626l.63868-.07818a20.54973,20.54973,0,0,1,7.0498-10.00944,23.45982,23.45982,0,0,1,11.80225-4.75965,19.66632,19.66632,0,0,1,11.32324,1.58951,16.92662,16.92662,0,0,1,7.46924,7.25367,23.45663,23.45663,0,0,1,2.61621,11.54205V453.9207l-22.04737,2.69881V422.11072q.03882-4.55822-2.29687-6.86826-2.33643-2.3097-6.49023-1.80172a10.20641,10.20641,0,0,0-4.73291,1.75757,9.3024,9.3024,0,0,0-3.09571,3.73393A12.92511,12.92511,0,0,0,1137.63567,424.28151Z" transform="translate(-712.92424 -336.27226)"/><path class="b5ff5c73-a622-4b42-8491-b18022688b77" d="M743.98528,607.97682V526.178l22.20752-2.71841V556.5299l1.11816-.13688,24.60352-36.082,25.88183-3.16818L790.15715,556.9519l28.27832,41.91152-26.521,3.24642L773.54192,573.684l-7.34912,10.48554v21.08886Z" transform="translate(-712.92424 -336.27226)"/><path class="b5ff5c73-a622-4b42-8491-b18022688b77" d="M849.58879,596.16812q-9.82543,1.20273-16.915-1.70385a21.7785,21.7785,0,0,1-10.9038-9.52856q-3.81445-6.6229-3.81446-16.52819A37.31687,37.31687,0,0,1,821.79,551.32194a32.76177,32.76177,0,0,1,10.82373-12.38743,36.40694,36.40694,0,0,1,16.4956-5.9743,33.54574,33.54574,0,0,1,12.58154.61713,22.62974,22.62974,0,0,1,9.626,5.07267,23.6,23.6,0,0,1,6.15088,9.17285,35.50269,35.50269,0,0,1,2.15674,12.87565v5.1123l-54.79883,6.70789V560.3771l34.50879-4.2242a7.86886,7.86886,0,0,0-1.33789-4.48955,7.57791,7.57791,0,0,0-3.4751-2.72989,9.87432,9.87432,0,0,0-4.93262-.53389,11.76123,11.76123,0,0,0-4.91259,1.739,11.09425,11.09425,0,0,0-3.57471,3.57332,9.568,9.568,0,0,0-1.418,4.84642v13.10059a10.13268,10.13268,0,0,0,1.23828,5.11991,7.50989,7.50989,0,0,0,3.55469,3.19964,10.45855,10.45855,0,0,0,5.59131.63393,14.02526,14.02526,0,0,0,4.17383-1.14959,10.838,10.838,0,0,0,3.25537-2.25591,8.63881,8.63881,0,0,0,1.99707-3.18l20.13037-2.46415a26.01179,26.01179,0,0,1-4.91309,11.6854,30.05983,30.05983,0,0,1-10.24463,8.52259A42.85933,42.85933,0,0,1,849.58879,596.16812Z" transform="translate(-712.92424 -336.27226)"/><path class="b5ff5c73-a622-4b42-8491-b18022688b77" d="M888.56975,590.27832V528.92871l20.9292-2.56193v11.66309l.63867-.07818a21.143,21.143,0,0,1,6.55029-9.90827,20.52186,20.52186,0,0,1,11.02393-4.7049,16.90571,16.90571,0,0,1,11.14355,2.05194,11.66923,11.66923,0,0,1,5.63135,8.35657l.63916-.07824a18.50721,18.50721,0,0,1,6.63037-9.85752,23.243,23.243,0,0,1,11.90235-4.873q8.82641-1.08043,14.31885,3.91911,5.491,4.99973,5.49169,14.42542v41.37891l-22.04736,2.6988V545.57343q0-4.03418-2.03711-6.08071a6.22429,6.22429,0,0,0-5.47168-1.62709,7.70314,7.70314,0,0,0-5.37207,2.95446,10.38734,10.38734,0,0,0-1.977,6.57209v35.78711L925.475,585.76077V549.97366q0-4.03419-2.03711-6.08072a6.22431,6.22431,0,0,0-5.47168-1.62709,7.95589,7.95589,0,0,0-3.91406,1.5172,8.117,8.117,0,0,0-2.53662,3.2861,11.65887,11.65887,0,0,0-.89844,4.72326v35.7871Z" transform="translate(-712.92424 -336.27226)"/><path class="b5ff5c73-a622-4b42-8491-b18022688b77" d="M994.33293,600.33777V515.9823l21.8877-2.67926v10.70508l.479-.05864a21.97631,21.97631,0,0,1,3.51514-6.16271,20.40319,20.40319,0,0,1,5.75146-4.89739,21.777,21.777,0,0,1,19.55079-.735q5.49169,2.56215,8.94677,9.08843,3.45411,6.52787,3.45508,17.63078,0,10.6245-3.29541,18.01764a28.40771,28.40771,0,0,1-8.78662,11.4994,24.859,24.859,0,0,1-12.04248,4.90966,18.82684,18.82684,0,0,1-7.68848-.47683,14.56177,14.56177,0,0,1-5.75146-3.17,14.79228,14.79228,0,0,1-3.65479-5.12391l-.31933.03909V597.639ZM1015.9008,544.017a21.49708,21.49708,0,0,0,1.17823,7.58527,9.50282,9.50282,0,0,0,3.355,4.62057,7.27607,7.27607,0,0,0,5.2124,1.13929,8.96187,8.96187,0,0,0,5.17236-2.36947,12.7784,12.7784,0,0,0,3.27539-5.3941,25.03286,25.03286,0,0,0,1.13819-7.94792,22.49954,22.49954,0,0,0-1.13819-7.66829,9.19573,9.19573,0,0,0-3.27539-4.59223,7.24936,7.24936,0,0,0-5.17236-1.10416,9.13855,9.13855,0,0,0-5.2124,2.37535,12.92992,12.92992,0,0,0-3.355,5.40385A24.28556,24.28556,0,0,0,1015.9008,544.017Z" transform="translate(-712.92424 -336.27226)"/><path class="b5ff5c73-a622-4b42-8491-b18022688b77" d="M1113.69566,486.3033l-24.09133,92.45243-17.08307,2.09113,24.09132-92.45243Z" transform="translate(-712.92424 -336.27226)"/><path class="b5ff5c73-a622-4b42-8491-b18022688b77" d="M1177.06307,535.19843l-54.31537,28.404V545.20468l34.60436-16.2086-.58413.94792v-2.04469l.58413.80492-34.60436-7.7368V502.57062l54.31537,15.10652Z" transform="translate(-712.92424 -336.27226)"/><path class="a75b1f07-e41b-4292-9c4b-0ef6489dc8b7" d="M958.516,398.91839" transform="translate(-712.92424 -336.27226)"/></svg>