<svg id="b3df1283-c7e3-4cbe-9ab9-4e9a1d201e41" data-name="Layer 1" xmlns="http://www.w3.org/2000/svg" viewBox="0 0 495 319.59267"><defs><style>.ece1698e-dd9d-4c60-8759-6d0880f60173,.f7730f3f-f7aa-4525-a233-5de19726973a{fill:#fff;}.ece1698e-dd9d-4c60-8759-6d0880f60173{stroke:#000;stroke-miterlimit:10;}</style></defs><path class="ece1698e-dd9d-4c60-8759-6d0880f60173" d="M1054.77927,743.78835" transform="translate(-712.92424 -380.23397)"/><polygon class="f7730f3f-f7aa-4525-a233-5de19726973a" points="495 259 0 319.593 0 60.593 495 0 495 259"/><path d="M743.98528,550.93854V469.13971l22.20752-2.71841v63.90527l33.0708-4.04818V544.172Z" transform="translate(-712.92424 -380.23397)"/><path d="M825.624,541.90369a24.823,24.823,0,0,1-10.36475-.66827,13.0324,13.0324,0,0,1-7.0498-5.02815q-2.55615-3.64145-2.55615-9.75253a21.14865,21.14865,0,0,1,1.71777-8.81721,18.45986,18.45986,0,0,1,4.793-6.43827,26.30929,26.30929,0,0,1,7.16894-4.35215,46.683,46.683,0,0,1,8.84717-2.64108q5.15259-1.02916,8.2876-1.993a12.586,12.586,0,0,0,4.5332-2.19211,3.83444,3.83444,0,0,0,1.398-2.987v-.15967a3.66881,3.66881,0,0,0-1.83691-3.45,7.50056,7.50056,0,0,0-4.71338-.70136,9.789,9.789,0,0,0-5.13233,2.00618,6.77373,6.77373,0,0,0-2.37646,4.50476l-20.29,2.4837a23.32634,23.32634,0,0,1,3.57471-10.76229,26.39979,26.39979,0,0,1,9.28662-8.72564,39.236,39.236,0,0,1,15.25732-4.7231,40.8596,40.8596,0,0,1,11.82227.09044,24.58535,24.58535,0,0,1,8.90674,3.18365,16.00362,16.00362,0,0,1,5.61181,5.7032,15.32134,15.32134,0,0,1,1.937,7.6916V536.193l-20.60938,2.52278v-8.62744l-.479.05864a21.24991,21.24991,0,0,1-4.45362,6.09692,19.5009,19.5009,0,0,1-5.95117,3.80416A28.32308,28.32308,0,0,1,825.624,541.90369Zm7.18945-14.77947a12.09523,12.09523,0,0,0,4.73291-1.61793,10.89594,10.89594,0,0,0,3.61475-3.43808,8.76434,8.76434,0,0,0,1.39795-4.92406v-5.1123q-.87964.4673-1.85742.90657-.97926.43994-2.07715.85338-1.09863.41427-2.31641.80259-1.21875.3887-2.53613.7499a14.261,14.261,0,0,0-4.17383,1.80877,7.45518,7.45518,0,0,0-2.39648,2.49013,6.03209,6.03209,0,0,0-.77881,2.99133,4.04016,4.04016,0,0,0,1.79736,3.69405A6.8323,6.8323,0,0,0,832.8134,527.12422Z" transform="translate(-712.92424 -380.23397)"/><path d="M904.54534,532.40263q-9.98585,1.22236-17.09473-1.88156a22.63316,22.63316,0,0,1-10.90381-9.76879q-3.79467-6.66489-3.79443-16.0907a37.54636,37.54636,0,0,1,3.79443-17.02014,32.31357,32.31357,0,0,1,10.90381-12.43824,38.08346,38.08346,0,0,1,17.09473-6.06668q9.02635-1.10492,15.63671,1.3408a20.39272,20.39272,0,0,1,10.24512,7.93243,24.08953,24.08953,0,0,1,3.67432,13.46966l-20.44971,2.50324q-.43946-4.778-2.77588-7.02935a6.99077,6.99077,0,0,0-6.01123-1.8003,9.04842,9.04842,0,0,0-5.03222,2.27371,12.50794,12.50794,0,0,0-3.355,5.40335,26.36,26.36,0,0,0-1.19825,8.51387,23.71795,23.71795,0,0,0,1.19825,8.221,8.96837,8.96837,0,0,0,3.355,4.582,7.34024,7.34024,0,0,0,5.03222,1.04172,9.06584,9.06584,0,0,0,4.314-1.66625,10.07627,10.07627,0,0,0,3.05517-3.72945,14.89606,14.89606,0,0,0,1.418-5.5852l20.44971-2.50323a30.36819,30.36819,0,0,1-3.71436,14.57381,28.74136,28.74136,0,0,1-10.165,10.53043A38.13778,38.13778,0,0,1,904.54534,532.40263Z" transform="translate(-712.92424 -380.23397)"/><path d="M965.25432,489.34433v34.50879l-22.04736,2.6988V444.7531l21.24853-2.601v32.11231l.63916-.07824a21.34013,21.34013,0,0,1,6.90967-10.01231,22.48176,22.48176,0,0,1,11.62256-4.71764,19.77774,19.77774,0,0,1,11.32324,1.5695,16.8144,16.8144,0,0,1,7.46924,7.23364,23.54666,23.54666,0,0,1,2.61621,11.5821v39.14209l-22.04736,2.6988V487.17353q.03882-4.55822-2.25684-6.87315-2.29761-2.31446-6.53027-1.79683a10.12538,10.12538,0,0,0-4.69336,1.75274,9.45166,9.45166,0,0,0-3.11524,3.73631A12.73,12.73,0,0,0,965.25432,489.34433Z" transform="translate(-712.92424 -380.23397)"/><path d="M1037.94622,433.15612v81.79882l-22.04737,2.69881V435.85492Z" transform="translate(-712.92424 -380.23397)"/><path d="M1066.22258,512.45215a24.82307,24.82307,0,0,1-10.36474-.66827,13.03238,13.03238,0,0,1-7.04981-5.02815q-2.55615-3.64146-2.55615-9.75254a21.1486,21.1486,0,0,1,1.71777-8.8172,18.45986,18.45986,0,0,1,4.793-6.43827,26.30935,26.30935,0,0,1,7.16895-4.35215,46.68343,46.68343,0,0,1,8.84716-2.64109q5.15259-1.02915,8.2876-1.993a12.5859,12.5859,0,0,0,4.53321-2.19212,3.83443,3.83443,0,0,0,1.39794-2.987v-.15966a3.66881,3.66881,0,0,0-1.83691-3.45,7.50056,7.50056,0,0,0-4.71338-.70136,9.78906,9.78906,0,0,0-5.13232,2.00617,6.77383,6.77383,0,0,0-2.37647,4.50477l-20.29,2.48369a23.32645,23.32645,0,0,1,3.57471-10.76228,26.39979,26.39979,0,0,1,9.28662-8.72564A39.236,39.236,0,0,1,1076.767,448.055a40.86024,40.86024,0,0,1,11.82226.09044,24.58554,24.58554,0,0,1,8.90674,3.18366,16.00357,16.00357,0,0,1,5.61182,5.7032,15.32144,15.32144,0,0,1,1.937,7.6916v42.01758l-20.60938,2.52278v-8.62744l-.479.05863a21.25,21.25,0,0,1-4.45361,6.09693,19.501,19.501,0,0,1-5.95118,3.80416A28.32348,28.32348,0,0,1,1066.22258,512.45215Zm7.18946-14.77947a12.0955,12.0955,0,0,0,4.73291-1.61793,10.89594,10.89594,0,0,0,3.61474-3.43809,8.76431,8.76431,0,0,0,1.39795-4.92405v-5.1123q-.87963.46729-1.85742.90656-.97924.43994-2.07715.85339-1.09863.41427-2.31641.80259-1.21875.38869-2.53613.7499a14.26075,14.26075,0,0,0-4.17383,1.80877,7.45508,7.45508,0,0,0-2.39648,2.49013,6.03214,6.03214,0,0,0-.77881,2.99133,4.04013,4.04013,0,0,0,1.79736,3.694A6.83228,6.83228,0,0,0,1073.412,497.67268Z" transform="translate(-712.92424 -380.23397)"/><path d="M1137.63567,468.24323V502.752l-22.04737,2.6988V444.1017l20.9292-2.56193v11.6626l.63868-.07818a20.54976,20.54976,0,0,1,7.0498-10.00945,23.45982,23.45982,0,0,1,11.80225-4.75965,19.66632,19.66632,0,0,1,11.32324,1.58952,16.92655,16.92655,0,0,1,7.46924,7.25366,23.45664,23.45664,0,0,1,2.61621,11.54206v39.14209l-22.04737,2.6988V466.07243q.03882-4.55822-2.29687-6.86825-2.33643-2.30971-6.49023-1.80173a10.20631,10.20631,0,0,0-4.73291,1.75758,9.30244,9.30244,0,0,0-3.09571,3.73392A12.92513,12.92513,0,0,0,1137.63567,468.24323Z" transform="translate(-712.92424 -380.23397)"/><path d="M743.98528,651.93854V570.13971l22.20752-2.71841v33.07031l1.11816-.13687,24.60352-36.082,25.88183-3.16818-27.63916,39.80908,28.27832,41.91151-26.521,3.24642-18.37256-28.42583-7.34912,10.48554v21.08887Z" transform="translate(-712.92424 -380.23397)"/><path d="M849.58879,640.12983q-9.82543,1.20273-16.915-1.70385a21.77848,21.77848,0,0,1-10.9038-9.52855q-3.81445-6.62292-3.81446-16.52819A37.31688,37.31688,0,0,1,821.79,595.28365a32.76177,32.76177,0,0,1,10.82373-12.38743,36.40693,36.40693,0,0,1,16.4956-5.97429,33.54575,33.54575,0,0,1,12.58154.61712,22.62985,22.62985,0,0,1,9.626,5.07267,23.60015,23.60015,0,0,1,6.15088,9.17286,35.5026,35.5026,0,0,1,2.15674,12.87564v5.1123l-54.79883,6.7079v-12.1416l34.50879-4.22421a7.86888,7.86888,0,0,0-1.33789-4.48955,7.578,7.578,0,0,0-3.4751-2.72988,9.87421,9.87421,0,0,0-4.93262-.5339,11.76137,11.76137,0,0,0-4.91259,1.739,11.09425,11.09425,0,0,0-3.57471,3.57332,9.568,9.568,0,0,0-1.418,4.84643v13.10058a10.13265,10.13265,0,0,0,1.23828,5.11991,7.50984,7.50984,0,0,0,3.55469,3.19964,10.45855,10.45855,0,0,0,5.59131.63393,14.025,14.025,0,0,0,4.17383-1.14959,10.83762,10.83762,0,0,0,3.25537-2.25591,8.63873,8.63873,0,0,0,1.99707-3.18l20.13037-2.46414a26.01175,26.01175,0,0,1-4.91309,11.68539,30.05983,30.05983,0,0,1-10.24463,8.52259A42.85912,42.85912,0,0,1,849.58879,640.12983Z" transform="translate(-712.92424 -380.23397)"/><path d="M888.56975,634.24V572.89042l20.9292-2.56193v11.66309l.63867-.07818a21.14288,21.14288,0,0,1,6.55029-9.90826,20.52179,20.52179,0,0,1,11.02393-4.70491,16.90571,16.90571,0,0,1,11.14355,2.05194,11.66923,11.66923,0,0,1,5.63135,8.35657l.63916-.07824a18.50721,18.50721,0,0,1,6.63037-9.85752,23.24311,23.24311,0,0,1,11.90235-4.873q8.82641-1.08043,14.31885,3.91911,5.491,4.99974,5.49169,14.42542v41.37891l-22.04736,2.6988v-35.7871q0-4.03419-2.03711-6.08072a6.22432,6.22432,0,0,0-5.47168-1.62709,7.70315,7.70315,0,0,0-5.37207,2.95447,10.38731,10.38731,0,0,0-1.977,6.57208V627.141L925.475,629.72248V593.93537q0-4.03418-2.03711-6.08072a6.22431,6.22431,0,0,0-5.47168-1.62709,7.95581,7.95581,0,0,0-3.91406,1.51721,8.117,8.117,0,0,0-2.53662,3.28609,11.6589,11.6589,0,0,0-.89844,4.72326v35.78711Z" transform="translate(-712.92424 -380.23397)"/><path d="M994.33293,644.29948V559.944l21.8877-2.67926v10.70508l.479-.05863a21.97617,21.97617,0,0,1,3.51514-6.16271,20.40306,20.40306,0,0,1,5.75146-4.8974,21.77691,21.77691,0,0,1,19.55079-.735q5.49169,2.56214,8.94677,9.08842,3.45411,6.52787,3.45508,17.63078,0,10.62452-3.29541,18.01765a28.40768,28.40768,0,0,1-8.78662,11.49939,24.859,24.859,0,0,1-12.04248,4.90966,18.82667,18.82667,0,0,1-7.68848-.47683,14.56177,14.56177,0,0,1-5.75146-3.17,14.79219,14.79219,0,0,1-3.65479-5.12391l-.31933.03909v33.07032Zm21.56787-56.32077a21.497,21.497,0,0,0,1.17823,7.58526,9.50277,9.50277,0,0,0,3.355,4.62057,7.27607,7.27607,0,0,0,5.2124,1.1393,8.96188,8.96188,0,0,0,5.17236-2.36948,12.7784,12.7784,0,0,0,3.27539-5.3941,25.03277,25.03277,0,0,0,1.13819-7.94792,22.49958,22.49958,0,0,0-1.13819-7.66829,9.19573,9.19573,0,0,0-3.27539-4.59223,7.24931,7.24931,0,0,0-5.17236-1.10415,9.13849,9.13849,0,0,0-5.2124,2.37535,12.92982,12.92982,0,0,0-3.355,5.40384A24.28563,24.28563,0,0,0,1015.9008,587.97871Z" transform="translate(-712.92424 -380.23397)"/><path d="M1113.69566,530.265l-24.09133,92.45242-17.08307,2.09113,24.09132-92.45242Z" transform="translate(-712.92424 -380.23397)"/><path d="M1177.06307,579.16015l-54.31537,28.404V589.16639l34.60436-16.2086-.58413.94792V571.861l.58413.80492-34.60436-7.7368V546.53233l54.31537,15.10653Z" transform="translate(-712.92424 -380.23397)"/><path class="ece1698e-dd9d-4c60-8759-6d0880f60173" d="M958.516,442.88011" transform="translate(-712.92424 -380.23397)"/></svg>