<svg id="bd3692dc-d0c7-4680-901e-a56bfe97d9fe" data-name="Layer 1" xmlns="http://www.w3.org/2000/svg" viewBox="0 0 495 319.5927"><defs><style>.b5ff5c73-a622-4b42-8491-b18022688b77{fill:#fff}</style></defs><path d="M495 259 0 319.593v-259L495 0v259z"/><path class="b5ff5c73-a622-4b42-8491-b18022688b77" d="M743.9853 506.9768V425.178l22.2075-2.7184v63.9053l33.0708-4.0482v17.8935ZM825.624 497.942a24.8233 24.8233 0 0 1-10.3648-.6683 13.0324 13.0324 0 0 1-7.0497-5.0281q-2.5562-3.6415-2.5562-9.7526a21.1486 21.1486 0 0 1 1.7178-8.8172 18.4597 18.4597 0 0 1 4.793-6.4382 26.3093 26.3093 0 0 1 7.169-4.3522 46.6838 46.6838 0 0 1 8.847-2.641q5.1527-1.0292 8.2877-1.993a12.5858 12.5858 0 0 0 4.5332-2.1922 3.8344 3.8344 0 0 0 1.398-2.987v-.1597a3.6688 3.6688 0 0 0-1.837-3.45 7.5006 7.5006 0 0 0-4.7133-.7013 9.789 9.789 0 0 0-5.1323 2.0062 6.7738 6.7738 0 0 0-2.3765 4.5047l-20.29 2.4837a23.3263 23.3263 0 0 1 3.5747-10.7623 26.3998 26.3998 0 0 1 9.2866-8.7256 39.236 39.236 0 0 1 15.2574-4.7231 40.8603 40.8603 0 0 1 11.8222.0904 24.5855 24.5855 0 0 1 8.9068 3.1837 16.0035 16.0035 0 0 1 5.6118 5.7032 15.3213 15.3213 0 0 1 1.937 7.6916v42.0176l-20.6094 2.5228v-8.6275l-.479.0586a21.25 21.25 0 0 1-4.4536 6.097 19.5013 19.5013 0 0 1-5.9512 3.8041 28.3235 28.3235 0 0 1-7.3292 1.8557Zm7.1894-14.7795a12.0954 12.0954 0 0 0 4.733-1.6179 10.8959 10.8959 0 0 0 3.6147-3.438 8.7643 8.7643 0 0 0 1.398-4.9241v-5.1123q-.8797.4672-1.8575.9065-.9792.44-2.0771.8534-1.0986.4143-2.3164.8026-1.2188.3887-2.5362.7499a14.2607 14.2607 0 0 0-4.1738 1.8088 7.455 7.455 0 0 0-2.3965 2.4901 6.032 6.032 0 0 0-.7788 2.9913 4.0401 4.0401 0 0 0 1.7974 3.694 6.8322 6.8322 0 0 0 4.5932.7957ZM904.5453 488.441q-9.9858 1.2223-17.0947-1.8816a22.6332 22.6332 0 0 1-10.9038-9.7688q-3.7947-6.665-3.7944-16.0907a37.5464 37.5464 0 0 1 3.7944-17.0202 32.3136 32.3136 0 0 1 10.9038-12.4382 38.0835 38.0835 0 0 1 17.0947-6.0667q9.0264-1.105 15.6368 1.3408a20.3927 20.3927 0 0 1 10.245 7.9324 24.0896 24.0896 0 0 1 3.6744 13.4697l-20.4497 2.5032q-.4395-4.778-2.7759-7.0293a6.9908 6.9908 0 0 0-6.0112-1.8003 9.0485 9.0485 0 0 0-5.0322 2.2737 12.508 12.508 0 0 0-3.355 5.4033 26.36 26.36 0 0 0-1.1983 8.514 23.7179 23.7179 0 0 0 1.1983 8.221 8.9684 8.9684 0 0 0 3.355 4.582 7.3403 7.3403 0 0 0 5.0322 1.0416 9.066 9.066 0 0 0 4.314-1.6662 10.0763 10.0763 0 0 0 3.0551-3.7295 14.896 14.896 0 0 0 1.418-5.5852l20.4498-2.5032a30.3682 30.3682 0 0 1-3.7144 14.5738 28.7414 28.7414 0 0 1-10.165 10.5304 38.1378 38.1378 0 0 1-15.6769 5.194ZM965.2543 445.3826v34.5088l-22.0473 2.6988v-81.7988l21.2485-2.601v32.1123l.6391-.0783a21.3402 21.3402 0 0 1 6.9097-10.0123 22.4818 22.4818 0 0 1 11.6226-4.7176 19.7777 19.7777 0 0 1 11.3232 1.5695 16.8144 16.8144 0 0 1 7.4693 7.2336 23.5466 23.5466 0 0 1 2.6162 11.5821v39.1421l-22.0474 2.6988v-34.5088q.0388-4.5582-2.2568-6.8731-2.2976-2.3145-6.5303-1.7969a10.1255 10.1255 0 0 0-4.6934 1.7528 9.4517 9.4517 0 0 0-3.1152 3.7363 12.73 12.73 0 0 0-1.1382 5.3517ZM1037.9462 389.1944v81.7988l-22.0474 2.6988v-81.7988ZM1066.2226 468.4904a24.8229 24.8229 0 0 1-10.3648-.6682 13.0323 13.0323 0 0 1-7.0498-5.0282q-2.5561-3.6414-2.5561-9.7525a21.1486 21.1486 0 0 1 1.7178-8.8172 18.4597 18.4597 0 0 1 4.793-6.4383 26.3096 26.3096 0 0 1 7.1689-4.3521 46.6842 46.6842 0 0 1 8.8472-2.6411q5.1526-1.0292 8.2876-1.993a12.5859 12.5859 0 0 0 4.5332-2.1921 3.8344 3.8344 0 0 0 1.398-2.987v-.1597a3.6688 3.6688 0 0 0-1.837-3.45 7.5006 7.5006 0 0 0-4.7134-.7014 9.789 9.789 0 0 0-5.1323 2.0062 6.7738 6.7738 0 0 0-2.3765 4.5048l-20.29 2.4837a23.3264 23.3264 0 0 1 3.5747-10.7623 26.3998 26.3998 0 0 1 9.2867-8.7256 39.236 39.236 0 0 1 15.2573-4.7231 40.8602 40.8602 0 0 1 11.8223.0904 24.5852 24.5852 0 0 1 8.9067 3.1837 16.0035 16.0035 0 0 1 5.6118 5.7032 15.3214 15.3214 0 0 1 1.937 7.6916v42.0175l-20.6094 2.5228v-8.6274l-.479.0586a21.25 21.25 0 0 1-4.4536 6.097 19.5012 19.5012 0 0 1-5.9512 3.804 28.323 28.323 0 0 1-7.3291 1.8557Zm7.1894-14.7794a12.0955 12.0955 0 0 0 4.733-1.618 10.896 10.896 0 0 0 3.6146-3.438 8.7643 8.7643 0 0 0 1.398-4.924v-5.1123q-.8796.4673-1.8574.9066-.9793.4399-2.0772.8533-1.0986.4143-2.3164.8026-1.2187.3887-2.5361.75a14.261 14.261 0 0 0-4.1738 1.8087 7.4553 7.4553 0 0 0-2.3965 2.4901 6.0322 6.0322 0 0 0-.7788 2.9914 4.0402 4.0402 0 0 0 1.7973 3.694 6.8322 6.8322 0 0 0 4.5933.7956ZM1137.6357 424.2815v34.5088l-22.0474 2.6988V400.14l20.9292-2.562v11.6627l.6387-.0782a20.5497 20.5497 0 0 1 7.0498-10.0095 23.4598 23.4598 0 0 1 11.8022-4.7596 19.6663 19.6663 0 0 1 11.3233 1.5895 16.9266 16.9266 0 0 1 7.4692 7.2537 23.4566 23.4566 0 0 1 2.6162 11.542v39.1421l-22.0474 2.6988v-34.5088q.0389-4.5582-2.2968-6.8682-2.3365-2.3097-6.4903-1.8018a10.2064 10.2064 0 0 0-4.7329 1.7576 9.3024 9.3024 0 0 0-3.0957 3.734 12.9251 12.9251 0 0 0-1.1181 5.3492ZM743.9853 607.9768V526.178l22.2075-2.7184v33.0703l1.1182-.1369 24.6035-36.082 25.8818-3.1682-27.6391 39.8091 28.2783 41.9115-26.521 3.2464-18.3726-28.4258-7.3491 10.4855v21.0889Z" transform="translate(-712.9242 -336.2723)"/><path class="b5ff5c73-a622-4b42-8491-b18022688b77" d="M849.5888 596.1681q-9.8254 1.2028-16.915-1.7038a21.7785 21.7785 0 0 1-10.9038-9.5286q-3.8145-6.6229-3.8145-16.5282a37.3169 37.3169 0 0 1 3.8345-17.0856 32.7618 32.7618 0 0 1 10.8237-12.3874 36.407 36.407 0 0 1 16.4956-5.9743 33.5457 33.5457 0 0 1 12.5816.6171 22.6297 22.6297 0 0 1 9.626 5.0727 23.6 23.6 0 0 1 6.1508 9.1729 35.5027 35.5027 0 0 1 2.1568 12.8756v5.1123l-54.7988 6.7079v-12.1416l34.5087-4.2242a7.8689 7.8689 0 0 0-1.3378-4.4896 7.578 7.578 0 0 0-3.4751-2.7298 9.8743 9.8743 0 0 0-4.9327-.534 11.7612 11.7612 0 0 0-4.9126 1.739 11.0943 11.0943 0 0 0-3.5747 3.5734 9.568 9.568 0 0 0-1.418 4.8464v13.1006a10.1327 10.1327 0 0 0 1.2383 5.12 7.5099 7.5099 0 0 0 3.5547 3.1995 10.4586 10.4586 0 0 0 5.5913.634 14.0253 14.0253 0 0 0 4.1738-1.1496 10.838 10.838 0 0 0 3.2554-2.256 8.6388 8.6388 0 0 0 1.997-3.18l20.1305-2.464a26.0118 26.0118 0 0 1-4.9131 11.6853 30.0598 30.0598 0 0 1-10.2447 8.5226 42.8593 42.8593 0 0 1-14.878 4.3974ZM888.5697 590.2783v-61.3496l20.9292-2.562V538.03l.6387-.0782a21.143 21.143 0 0 1 6.5503-9.9083 20.5219 20.5219 0 0 1 11.024-4.7049 16.9057 16.9057 0 0 1 11.1435 2.052 11.6692 11.6692 0 0 1 5.6313 8.3565l.6392-.0782a18.5072 18.5072 0 0 1 6.6304-9.8575 23.243 23.243 0 0 1 11.9023-4.873q8.8264-1.0805 14.3189 3.919 5.491 4.9998 5.4917 14.4255v41.379l-22.0474 2.6987v-35.787q0-4.0342-2.0371-6.0808a6.2243 6.2243 0 0 0-5.4717-1.627 7.7031 7.7031 0 0 0-5.372 2.9544 10.3873 10.3873 0 0 0-1.977 6.572v35.7872l-21.089 2.5815v-35.7871q0-4.0342-2.0371-6.0808a6.2243 6.2243 0 0 0-5.4717-1.627 7.9559 7.9559 0 0 0-3.914 1.5172 8.117 8.117 0 0 0-2.5367 3.286 11.6589 11.6589 0 0 0-.8984 4.7233v35.7871ZM994.333 600.3378v-84.3555l21.8876-2.6793v10.7051l.479-.0586a21.9763 21.9763 0 0 1 3.5152-6.1627 20.4032 20.4032 0 0 1 5.7514-4.8974 21.777 21.777 0 0 1 19.5508-.735q5.4917 2.5621 8.9468 9.0884 3.4541 6.5279 3.455 17.6308 0 10.6245-3.2953 18.0176a28.4077 28.4077 0 0 1-8.7867 11.4994 24.859 24.859 0 0 1-12.0424 4.9097 18.8268 18.8268 0 0 1-7.6885-.4768 14.5618 14.5618 0 0 1-5.7515-3.17 14.7923 14.7923 0 0 1-3.6548-5.124l-.3193.0391v33.0704Zm21.5678-56.3208a21.497 21.497 0 0 0 1.1782 7.5853 9.5028 9.5028 0 0 0 3.355 4.6205 7.276 7.276 0 0 0 5.2124 1.1393 8.9619 8.9619 0 0 0 5.1724-2.3694 12.7784 12.7784 0 0 0 3.2754-5.3941 25.0329 25.0329 0 0 0 1.1382-7.948 22.4995 22.4995 0 0 0-1.1382-7.6682 9.1957 9.1957 0 0 0-3.2754-4.5923 7.2494 7.2494 0 0 0-5.1724-1.1041 9.1386 9.1386 0 0 0-5.2124 2.3753 12.93 12.93 0 0 0-3.355 5.4039 24.2856 24.2856 0 0 0-1.1782 7.9518ZM1113.6957 486.3033l-24.0914 92.4524-17.083 2.0912 24.0913-92.4525ZM1177.063 535.1984l-54.3153 28.404v-18.3977l34.6044-16.2086-.5842.9479v-2.0447l.5842.805-34.6044-7.7369v-18.3968l54.3154 15.1065Z" transform="translate(-712.9242 -336.2723)"/></svg>