<?xml version="1.0" encoding="UTF-8"?><svg id="a" xmlns="http://www.w3.org/2000/svg" viewBox="0 0 607.4278 590.7611"><g><path d="M251.2075,502.415C251.2075,248.7203,253.6947,251.2075,0,251.2075,253.6947,251.2075,251.2075,253.6947,251.2075,0c0,253.6947-2.4872,251.2075,251.2075,251.2075-253.6947,0-251.2075-2.4872-251.2075,251.2075Z" style="fill:#0d101a;"/><path d="M251.2075,502.415C251.2075,248.7203,253.6947,251.2075,0,251.2075,253.6947,251.2075,251.2075,253.6947,251.2075,0c0,253.6947-2.4872,251.2075,251.2075,251.2075-253.6947,0-251.2075-2.4872-251.2075,251.2075Z" style="fill:none; stroke:#f2f2f3; stroke-miterlimit:10;"/></g><g><path d="M356.2203,590.7611c0-253.6947,2.4872-251.2075-251.2075-251.2075,253.6947,0,251.2075,2.4872,251.2075-251.2075,0,253.6947-2.4872,251.2075,251.2075,251.2075-253.6947,0-251.2075-2.4872-251.2075,251.2075Z" style="fill:#0d101a;"/><path d="M356.2203,590.7611c0-253.6947,2.4872-251.2075-251.2075-251.2075,253.6947,0,251.2075,2.4872,251.2075-251.2075,0,253.6947-2.4872,251.2075,251.2075,251.2075-253.6947,0-251.2075-2.4872-251.2075,251.2075Z" style="fill:none; stroke:#f2f2f3; stroke-miterlimit:10;"/></g></svg>