<?xml version="1.0" encoding="UTF-8"?><svg id="a" xmlns="http://www.w3.org/2000/svg" viewBox="0 0 524.27 524.27"><defs><style>.b{fill:#aaadbc;}</style></defs><path class="b" d="M470.01,138.58h-84.32V54.26L331.43,0H54.26L0,54.26V331.43l54.26,54.26h84.32v84.32l54.26,54.26H470.01l54.26-54.26V192.85l-54.26-54.26Zm0,54.26v223.16l-84.45-84.45,.13-.13V192.85h84.32Zm-277.16,0h138.58v138.58H192.85V192.85Zm138.58-54.26H192.85l-.13,.13L108.27,54.26h223.16v84.32ZM54.26,331.43V108.27l84.45,84.45-.13,.13v138.58H54.26Zm138.58,54.26h138.58l.13-.13,84.45,84.45H192.85v-84.32Z"/></svg>